PathFileType	4	(X/Y/Z)	Patient4_TMGait_0pt4_03_right_10.trc.trc
DataRate	CameraRate	NumFrames	NumMarkers	Units	OrigDataRate	OrigDataStartFrame	OrigNumFrames
75.268817204301	75.268817204301	4	33	mm	75.268817204301	53	       141
Frame#	Time	Sacral			L.Shoulder			Chest			R.Shoulder			Neck			R.ASIS			L.ASIS			R.Thigh.Superior			R.Thigh.Lateral			R.Thigh.Inferior			R.Patella			L.Thigh.Superior			L.Thigh.Lateral			L.Thigh.Inferior			L.Patella			L.Shank.Superior			L.Shank.Lateral			L.Shank.Inferior			R.Shank.Superior			R.Shank.Lateral			R.Shank.Inferior			R.Heel			R.Midfoot.Superior			R.Midfoot.Lateral			R.Toe			L.Heel			L.Midfoot.Lateral			L.Midfoot.Superior			L.Toe			L.Elbow			L.Wrist			R.Elbow			R.Wrist			
		X1	Y1	Z1	X2	Y2	Z2	X3	Y3	Z3	X4	Y4	Z4	X5	Y5	Z5	X6	Y6	Z6	X7	Y7	Z7	X8	Y8	Z8	X9	Y9	Z9	X10	Y10	Z10	X11	Y11	Z11	X12	Y12	Z12	X13	Y13	Z13	X14	Y14	Z14	X15	Y15	Z15	X16	Y16	Z16	X17	Y17	Z17	X18	Y18	Z18	X19	Y19	Z19	X20	Y20	Z20	X21	Y21	Z21	X22	Y22	Z22	X23	Y23	Z23	X24	Y24	Z24	X25	Y25	Z25	X26	Y26	Z26	X27	Y27	Z27	X28	Y28	Z28	X29	Y29	Z29	X30	Y30	Z30	X31	Y31	Z31	X32	Y32	Z32	X33	Y33	Z33	

53	12.770857142857	825.094750106799	1005.600851152760	535.245194794919	973.115378841069	1433.368912384479	332.874910770438	1097.419568914570	1370.414427656849	480.732120386051	1036.054614675857	1443.365115312733	663.822100532233	971.511904699463	1496.642312945515	490.395667325172	1064.913533006051	942.945799321053	626.957192495870	1021.014662114297	968.210136009597	356.277067756783	1093.056052342622	738.270960022802	594.467288535515	1010.083149946483	631.402383742339	659.739771758073	1079.870857552043	576.533354184374	575.718028480355	1074.866648560623	488.513208841085	581.616143706157	1109.102247879358	788.318543827832	369.315387686892	1059.187846750339	661.612048013003	289.520262062245	1171.838258886867	604.126508430565	334.182593146469	1190.406365589010	520.809695265959	323.350557272821	1138.441749564487	447.363571099662	316.884415035431	1008.580999191933	373.337521899200	276.097400544812	1035.709550926609	241.812064001523	320.750339901710	1042.325258957613	401.014869422292	588.887767096518	967.483593985033	300.325246709462	651.758420566160	1001.337408188935	204.246566725652	585.340333005677	860.422648154483	43.473141853946	554.507748096396	1030.762835872281	95.653406380793	591.844091680131	943.061176568642	37.052067457693	630.482166812900	1151.553550910150	42.108140482542	621.025503491040	874.579059709063	128.950305061833	368.666065299676	932.838332259401	102.661619933861	281.052120872737	1033.973049516362	136.448116253348	294.992271541406	1133.575931976318	49.639675183259	252.473620515963	923.490442279558	1078.063374894399	233.284755375309	991.041054901789	825.843931819188	206.314088015684	1118.181612467073	1120.744946456366	814.325906015775	1361.263145396038	1046.863343062558	774.501559648336	
54	12.784142857143	824.309913721910	1006.554024252233	536.275464638251	972.909632486364	1433.716390778783	333.536748808724	1098.007115365745	1370.191139936183	480.448242259485	1038.237967013711	1443.384908513490	663.997232034967	972.398018784519	1496.815974223847	490.934187720615	1064.289953932188	942.593423052890	626.570215350770	1019.392080510001	968.706224867574	356.112406895589	1090.317460899068	737.613770450931	593.776807333058	1006.786903740265	631.400735118074	659.761241258067	1075.469100103702	575.944503188717	575.444179844047	1069.738768158754	488.291866863734	581.464652796489	1107.056260692442	789.075693010998	369.527642659815	1057.897313180908	662.433290929692	289.480651773184	1169.946876614493	605.004670727334	335.282622659067	1189.719394279416	523.366381087332	324.136343625950	1141.326893488271	449.395456502663	316.609296351939	1016.504206611350	368.227260328870	274.597970650692	1051.576738768034	238.040010170004	318.152225755375	1037.289935729164	400.867841961982	588.859122596204	962.438858428482	300.255693632758	651.748401968977	996.100182864681	204.138474951757	585.328780296333	855.075330350998	43.428175465487	554.595098665439	1025.348305152655	95.586807005499	591.825988102217	937.695789283801	37.005337524248	630.523949070568	1146.164082215616	42.101646667566	621.089657273849	898.073649256265	114.610186609435	364.873480636289	957.632147488339	93.371993952037	276.825624980942	1056.428233332754	133.180480803805	291.180243325251	1161.184635454663	53.643401487130	247.366631199798	916.358238717786	1079.309452996877	234.940077844297	974.113205834253	824.489182031546	210.711511924994	1125.940624864231	1122.260138654950	813.312706207970	1371.419598724516	1060.474494574983	769.863503944691	
55	12.797428571429	823.520266485715	1007.469072588272	537.076979530685	972.852578135164	1434.004881392965	333.997864270718	1098.677830335187	1369.843682682897	479.986362918411	1040.478156004840	1443.273886321612	663.981140361557	973.390410657320	1496.908039523697	491.296057386997	1063.586771156437	942.178991586250	626.033095893832	1017.810439048769	969.026989441804	355.789769797446	1087.518613351174	736.919401948612	593.023293257727	1003.450822566853	631.374148788309	659.722188875181	1071.009198989991	575.346419925403	575.115659471552	1064.576687221522	488.081975361246	581.280443644203	1104.706068446369	789.297441058008	369.800840739080	1056.190318317370	662.916292340168	289.337557338085	1167.281826683005	605.187434037284	336.706197221554	1188.199188056919	525.451207542620	325.237708642367	1143.551305184928	451.241749966869	316.527320813265	1024.544877918254	363.010871232724	272.867788710381	1067.554199860861	234.725732631910	315.614268843459	1032.219250592825	400.714128177614	588.785118534012	957.376013287646	300.173729626435	651.690962637404	990.850770651856	204.019805967356	585.283710926864	849.720370131820	43.376712938269	554.673046391662	1019.937123577676	95.526756065060	591.809253603603	932.324021312537	36.953253922597	630.542072231812	1140.773219313188	42.098075086317	621.143366164947	922.408823483412	101.035402994031	360.721409422450	983.276456840016	84.911993513605	272.493530919727	1079.290974999014	130.675285822488	287.547698436226	1188.951272474414	58.698021987603	242.916919419299	909.165010598931	1080.721533842254	236.351393413825	958.079375507207	823.887076650048	215.158440179305	1133.438329160574	1123.611309062414	811.965795103762	1380.629443681038	1073.764477147681	764.977048916868	
56	12.810714285714	822.742750685027	1008.341185908464	537.647426032950	972.942901071144	1434.237032145060	334.241560273751	1099.419640863029	1369.387989597187	479.344666775353	1042.743180154296	1443.049903208155	663.762513875733	974.471897978739	1496.929980726689	491.465202276492	1062.820213454535	941.721199137775	625.370227945063	1016.286791395064	969.183221917230	355.321399525418	1084.691020604332	736.193869100121	592.246762411770	1000.077888023399	631.328167662789	659.624907243386	1066.517586488705	574.743576504042	574.749394631733	1059.405051097499	487.882997083022	581.068078758175	1102.080988888278	789.022990810862	370.124855330338	1054.082309674622	663.098631806079	289.058470217132	1163.924451808798	604.752579153434	338.320685962387	1185.931314532374	527.108433421914	326.562016001537	1145.139890380637	452.947196455826	316.611262440827	1032.638509880298	357.901358087227	270.931856262423	1083.385594609510	232.073006505562	313.244067851187	1027.126042623479	400.558759550115	588.666675662090	952.299574592803	300.089413477597	651.596249108908	985.594788461728	203.898431813179	585.211560109397	844.357828944662	43.323561586211	554.741617028617	1014.533231771653	95.477566690911	591.800285604626	926.946878118477	36.898792114002	630.539799803828	1135.382691691054	42.097913555958	621.188113510125	947.146510481465	88.686913201200	356.377981482874	1009.367087258871	77.573923676357	268.274994728182	1102.203332730616	129.105869650390	284.286808802288	1216.436638518369	64.789894553099	239.457312617551	901.963996507989	1082.283111699988	237.577412084199	942.955714917768	823.916191163461	219.595755135833	1140.667811645273	1124.806067394378	810.290237004371	1388.911229955607	1086.621829086779	759.888469501535	
